<?xml version="1.0" encoding="UTF-8" standalone="no"?>
<!-- Created with Inkscape (http://www.inkscape.org/) -->

<svg
   width="210mm"
   height="297mm"
   viewBox="0 0 210 297"
   version="1.1"
   id="svg1"
   xml:space="preserve"
   inkscape:version="1.4.2 (2aeb623e1d, 2025-05-12)"
   sodipodi:docname="routebasee.svg"
   xmlns:inkscape="http://www.inkscape.org/namespaces/inkscape"
   xmlns:sodipodi="http://sodipodi.sourceforge.net/DTD/sodipodi-0.dtd"
   xmlns:xlink="http://www.w3.org/1999/xlink"
   xmlns="http://www.w3.org/2000/svg"
   xmlns:svg="http://www.w3.org/2000/svg"><sodipodi:namedview
     id="namedview1"
     pagecolor="#ffffff"
     bordercolor="#111111"
     borderopacity="1"
     inkscape:showpageshadow="0"
     inkscape:pageopacity="0"
     inkscape:pagecheckerboard="1"
     inkscape:deskcolor="#d1d1d1"
     inkscape:document-units="mm"
     inkscape:zoom="0.99732759"
     inkscape:cx="308.82531"
     inkscape:cy="514.87596"
     inkscape:window-width="1300"
     inkscape:window-height="699"
     inkscape:window-x="0"
     inkscape:window-y="0"
     inkscape:window-maximized="1"
     inkscape:current-layer="layer1" /><defs
     id="defs1"><linearGradient
       id="linearGradient5"
       inkscape:collect="always"><stop
         style="stop-color:#39399f;stop-opacity:1;"
         offset="0"
         id="stop4" /><stop
         style="stop-color:#10293a;stop-opacity:1;"
         offset="1"
         id="stop5" /></linearGradient><linearGradient
       id="linearGradient2"
       inkscape:collect="always"><stop
         style="stop-color:#27428d;stop-opacity:1;"
         offset="0"
         id="stop2" /><stop
         style="stop-color:#1f1f1f;stop-opacity:1;"
         offset="1"
         id="stop3" /></linearGradient><linearGradient
       id="linearGradient12"
       inkscape:collect="always"><stop
         style="stop-color:#3cf8d8;stop-opacity:1;"
         offset="0.06992455"
         id="stop12" /><stop
         style="stop-color:#837ef2;stop-opacity:0.84881467;"
         offset="0.99939799"
         id="stop13" /></linearGradient><linearGradient
       id="linearGradient10"
       inkscape:collect="always"><stop
         style="stop-color:#00e8c9;stop-opacity:1;"
         offset="0"
         id="stop10" /><stop
         style="stop-color:#e722ff;stop-opacity:0.29525864;"
         offset="1"
         id="stop11" /></linearGradient><linearGradient
       inkscape:collect="always"
       xlink:href="#linearGradient10"
       id="linearGradient11"
       x1="42.19484"
       y1="107.11913"
       x2="108.86984"
       y2="107.11913"
       gradientUnits="userSpaceOnUse" /><linearGradient
       inkscape:collect="always"
       xlink:href="#linearGradient12"
       id="linearGradient13"
       x1="43.517735"
       y1="135.70742"
       x2="115.74901"
       y2="135.70742"
       gradientUnits="userSpaceOnUse" /><linearGradient
       inkscape:collect="always"
       xlink:href="#linearGradient2"
       id="linearGradient3"
       x1="33.692123"
       y1="125.48326"
       x2="123.89151"
       y2="125.48326"
       gradientUnits="userSpaceOnUse" /><linearGradient
       inkscape:collect="always"
       xlink:href="#linearGradient5"
       id="linearGradient4"
       gradientUnits="userSpaceOnUse"
       x1="33.692123"
       y1="125.48326"
       x2="123.89151"
       y2="125.48326"
       gradientTransform="matrix(0.87058828,0,0,0.84682079,10.196588,19.884653)" /></defs><g
     inkscape:label="Layer 1"
     inkscape:groupmode="layer"
     id="layer1"><rect
       style="fill:url(#linearGradient3);stroke-width:1000;fill-opacity:1"
       id="rect1"
       width="90.199387"
       height="91.791138"
       x="33.692123"
       y="79.587692"
       ry="13.795199" /><rect
       style="fill:url(#linearGradient4);fill-opacity:1;stroke-width:858.623"
       id="rect3"
       width="78.526527"
       height="77.730637"
       x="39.528557"
       y="87.281174"
       ry="11.682061" /><g
       id="g2"
       transform="matrix(0.82326872,0,0,0.7456835,15.150624,32.561167)"><path
         d="m 107.3118,102.94152 c 1.17444,0.0154 2.3208,0.14942 3.03495,0.62425 0.8326,0.5536 1.05161,2.01689 1.34566,2.90318 0.90529,2.72853 1.40976,5.59085 1.41076,8.46667 0.004,10.21535 -3.77365,23.8657 -14.287496,28.31042 3.870586,5.4041 7.484626,10.98992 11.339876,16.40416 1.7897,2.51342 4.87946,5.71971 5.59346,8.73125 h -15.34584 c -3.93009,0 -7.789736,0.15307 -11.112496,-2.3182 -3.9522,-2.9394 -6.739045,-8.73148 -9.517765,-12.76305 -1.1637,-1.68838 -2.187985,-4.39232 -4.505152,-4.49275 -1.931584,-0.0838 -3.887359,-0.0142 -5.820833,-0.005 -1.210633,0.006 -2.318981,0.16776 -3.439584,0.65319 -5.657148,2.45066 -4.610683,9.19033 -4.497916,14.16347 0.02906,1.28158 -0.01119,3.00149 -0.0033,4.18806 0.0078,1.17164 -4.755497,0.88485 -5.679945,0.86504 l -6.781189,-0.1453 c -1.056894,-0.0226 -2.62207,0.14747 -3.601209,-0.30498 -0.992833,-0.45878 -1.102775,-2.0807 -1.290877,-3.01532 -0.64321,-3.19597 -0.635314,-6.27806 -0.635104,-9.525 7.27e-4,-10.88741 6.257225,-22.57007 13.759367,-30.1625 2.077699,-2.10269 4.225162,-4.71089 6.878133,-6.08541 1.730595,2.96172 3.711063,5.72434 6.879167,7.30859 7.43987,3.72041 16.389293,-0.79786 18.588013,-8.63151 1.3991,-4.98476 -1.062156,-7.81677 -2.712496,-12.17083 5.704157,-1.85546 11.195587,-2.91042 17.197396,-2.91042 0.82721,0 2.03001,-0.10327 3.20446,-0.0879 z"
         style="fill:url(#linearGradient13)"
         id="path10"
         sodipodi:nodetypes="cssccscssscccsssssssscsscscc" /><path
         d="m 42.19484,84.243953 v 45.772917 c 1.611513,-1.33187 2.658656,-3.41034 3.991488,-5.02708 2.651469,-3.21628 5.541232,-6.17423 8.708512,-8.88267 15.130552,-12.93864 34.321036,-19.270523 53.975,-15.459 -2.08568,-6.588582 -10.064383,-11.771293 -16.139583,-14.181563 -6.62443,-2.628166 -13.655574,-2.222604 -20.6375,-2.222604 z"
         style="fill:url(#linearGradient11)"
         id="path9" /></g></g></svg>
